<mxfile host="Electron" modified="2024-05-03T13:19:32.914Z" agent="Mozilla/5.0 (Windows NT 10.0; Win64; x64) AppleWebKit/537.36 (KHTML, like Gecko) draw.io/24.2.5 Chrome/120.0.6099.109 Electron/28.1.0 Safari/537.36" etag="0hg31LqNm9uXY1vE3CXt" version="24.2.5" type="device">
  <diagram id="C5RBs43oDa-KdzZeNtuy" name="Page-1">
    <mxGraphModel dx="1104" dy="858" grid="1" gridSize="10" guides="1" tooltips="1" connect="1" arrows="1" fold="1" page="1" pageScale="1" pageWidth="827" pageHeight="1169" math="0" shadow="0">
      <root>
        <mxCell id="WIyWlLk6GJQsqaUBKTNV-0" />
        <mxCell id="WIyWlLk6GJQsqaUBKTNV-1" parent="WIyWlLk6GJQsqaUBKTNV-0" />
        <mxCell id="QkAr9Uhtty9UMBnQNpKc-29" value="" style="edgeStyle=orthogonalEdgeStyle;rounded=0;orthogonalLoop=1;jettySize=auto;html=1;" parent="WIyWlLk6GJQsqaUBKTNV-1" source="QkAr9Uhtty9UMBnQNpKc-0" target="QkAr9Uhtty9UMBnQNpKc-3" edge="1">
          <mxGeometry relative="1" as="geometry" />
        </mxCell>
        <mxCell id="QkAr9Uhtty9UMBnQNpKc-0" value="" style="shape=waypoint;sketch=0;fillStyle=solid;size=6;pointerEvents=1;points=[];fillColor=none;resizable=0;rotatable=0;perimeter=centerPerimeter;snapToPoint=1;strokeWidth=10;" parent="WIyWlLk6GJQsqaUBKTNV-1" vertex="1">
          <mxGeometry x="404" y="110" width="20" height="20" as="geometry" />
        </mxCell>
        <mxCell id="QkAr9Uhtty9UMBnQNpKc-1" value="Пользователь" style="text;html=1;align=center;verticalAlign=middle;resizable=0;points=[];autosize=1;strokeColor=none;fillColor=none;" parent="WIyWlLk6GJQsqaUBKTNV-1" vertex="1">
          <mxGeometry x="364" y="80" width="100" height="30" as="geometry" />
        </mxCell>
        <mxCell id="QkAr9Uhtty9UMBnQNpKc-2" value="" style="ellipse;html=1;shape=endState;fillColor=#000000;strokeColor=#000000;" parent="WIyWlLk6GJQsqaUBKTNV-1" vertex="1">
          <mxGeometry x="404" y="620" width="30" height="30" as="geometry" />
        </mxCell>
        <mxCell id="QkAr9Uhtty9UMBnQNpKc-25" value="" style="edgeStyle=orthogonalEdgeStyle;rounded=0;orthogonalLoop=1;jettySize=auto;html=1;" parent="WIyWlLk6GJQsqaUBKTNV-1" source="QkAr9Uhtty9UMBnQNpKc-3" target="QkAr9Uhtty9UMBnQNpKc-7" edge="1">
          <mxGeometry relative="1" as="geometry" />
        </mxCell>
        <mxCell id="QkAr9Uhtty9UMBnQNpKc-26" value="" style="edgeStyle=orthogonalEdgeStyle;rounded=0;orthogonalLoop=1;jettySize=auto;html=1;" parent="WIyWlLk6GJQsqaUBKTNV-1" source="QkAr9Uhtty9UMBnQNpKc-3" target="QkAr9Uhtty9UMBnQNpKc-6" edge="1">
          <mxGeometry relative="1" as="geometry" />
        </mxCell>
        <mxCell id="QkAr9Uhtty9UMBnQNpKc-3" value="Пользователь зарегестрирован?" style="html=1;whiteSpace=wrap;aspect=fixed;shape=isoRectangle;" parent="WIyWlLk6GJQsqaUBKTNV-1" vertex="1">
          <mxGeometry x="339" y="190" width="150" height="90" as="geometry" />
        </mxCell>
        <mxCell id="QkAr9Uhtty9UMBnQNpKc-23" style="edgeStyle=orthogonalEdgeStyle;rounded=0;orthogonalLoop=1;jettySize=auto;html=1;" parent="WIyWlLk6GJQsqaUBKTNV-1" source="QkAr9Uhtty9UMBnQNpKc-6" target="QkAr9Uhtty9UMBnQNpKc-8" edge="1">
          <mxGeometry relative="1" as="geometry">
            <Array as="points">
              <mxPoint x="600" y="325" />
            </Array>
          </mxGeometry>
        </mxCell>
        <mxCell id="QkAr9Uhtty9UMBnQNpKc-6" value="Регестрация&amp;nbsp;" style="rounded=1;whiteSpace=wrap;html=1;" parent="WIyWlLk6GJQsqaUBKTNV-1" vertex="1">
          <mxGeometry x="540" y="220" width="120" height="30" as="geometry" />
        </mxCell>
        <mxCell id="QkAr9Uhtty9UMBnQNpKc-24" style="edgeStyle=orthogonalEdgeStyle;rounded=0;orthogonalLoop=1;jettySize=auto;html=1;entryX=0;entryY=0.5;entryDx=0;entryDy=0;" parent="WIyWlLk6GJQsqaUBKTNV-1" source="QkAr9Uhtty9UMBnQNpKc-7" target="QkAr9Uhtty9UMBnQNpKc-8" edge="1">
          <mxGeometry relative="1" as="geometry">
            <Array as="points">
              <mxPoint x="240" y="325" />
            </Array>
          </mxGeometry>
        </mxCell>
        <mxCell id="QkAr9Uhtty9UMBnQNpKc-7" value="Авторизация" style="rounded=1;whiteSpace=wrap;html=1;" parent="WIyWlLk6GJQsqaUBKTNV-1" vertex="1">
          <mxGeometry x="180" y="220" width="120" height="30" as="geometry" />
        </mxCell>
        <mxCell id="QkAr9Uhtty9UMBnQNpKc-10" style="edgeStyle=orthogonalEdgeStyle;rounded=0;orthogonalLoop=1;jettySize=auto;html=1;exitX=0.5;exitY=1;exitDx=0;exitDy=0;" parent="WIyWlLk6GJQsqaUBKTNV-1" source="QkAr9Uhtty9UMBnQNpKc-8" target="QkAr9Uhtty9UMBnQNpKc-9" edge="1">
          <mxGeometry relative="1" as="geometry" />
        </mxCell>
        <mxCell id="QkAr9Uhtty9UMBnQNpKc-8" value="Просмотр каталога" style="rounded=1;whiteSpace=wrap;html=1;" parent="WIyWlLk6GJQsqaUBKTNV-1" vertex="1">
          <mxGeometry x="360" y="310" width="120" height="30" as="geometry" />
        </mxCell>
        <mxCell id="QkAr9Uhtty9UMBnQNpKc-22" style="edgeStyle=orthogonalEdgeStyle;rounded=0;orthogonalLoop=1;jettySize=auto;html=1;entryX=0.5;entryY=0;entryDx=0;entryDy=0;" parent="WIyWlLk6GJQsqaUBKTNV-1" source="QkAr9Uhtty9UMBnQNpKc-9" target="QkAr9Uhtty9UMBnQNpKc-13" edge="1">
          <mxGeometry relative="1" as="geometry" />
        </mxCell>
        <mxCell id="QkAr9Uhtty9UMBnQNpKc-9" value="Поиск товара" style="rounded=1;whiteSpace=wrap;html=1;" parent="WIyWlLk6GJQsqaUBKTNV-1" vertex="1">
          <mxGeometry x="360" y="370" width="120" height="30" as="geometry" />
        </mxCell>
        <mxCell id="QkAr9Uhtty9UMBnQNpKc-21" style="edgeStyle=orthogonalEdgeStyle;rounded=0;orthogonalLoop=1;jettySize=auto;html=1;entryX=0.5;entryY=0;entryDx=0;entryDy=0;" parent="WIyWlLk6GJQsqaUBKTNV-1" source="QkAr9Uhtty9UMBnQNpKc-13" target="QkAr9Uhtty9UMBnQNpKc-14" edge="1">
          <mxGeometry relative="1" as="geometry" />
        </mxCell>
        <mxCell id="QkAr9Uhtty9UMBnQNpKc-13" value="Просмотр информации о товаре" style="rounded=1;whiteSpace=wrap;html=1;" parent="WIyWlLk6GJQsqaUBKTNV-1" vertex="1">
          <mxGeometry x="360" y="430" width="120" height="40" as="geometry" />
        </mxCell>
        <mxCell id="QkAr9Uhtty9UMBnQNpKc-17" value="" style="edgeStyle=orthogonalEdgeStyle;rounded=0;orthogonalLoop=1;jettySize=auto;html=1;" parent="WIyWlLk6GJQsqaUBKTNV-1" source="QkAr9Uhtty9UMBnQNpKc-14" target="QkAr9Uhtty9UMBnQNpKc-15" edge="1">
          <mxGeometry relative="1" as="geometry" />
        </mxCell>
        <mxCell id="QkAr9Uhtty9UMBnQNpKc-14" value="Добавление товара в корзину" style="rounded=1;whiteSpace=wrap;html=1;" parent="WIyWlLk6GJQsqaUBKTNV-1" vertex="1">
          <mxGeometry x="360" y="500" width="120" height="30" as="geometry" />
        </mxCell>
        <mxCell id="QkAr9Uhtty9UMBnQNpKc-16" value="" style="edgeStyle=orthogonalEdgeStyle;rounded=0;orthogonalLoop=1;jettySize=auto;html=1;" parent="WIyWlLk6GJQsqaUBKTNV-1" source="QkAr9Uhtty9UMBnQNpKc-15" target="QkAr9Uhtty9UMBnQNpKc-2" edge="1">
          <mxGeometry relative="1" as="geometry" />
        </mxCell>
        <mxCell id="QkAr9Uhtty9UMBnQNpKc-15" value="Заказ товара" style="rounded=1;whiteSpace=wrap;html=1;" parent="WIyWlLk6GJQsqaUBKTNV-1" vertex="1">
          <mxGeometry x="360" y="560" width="120" height="30" as="geometry" />
        </mxCell>
        <mxCell id="QkAr9Uhtty9UMBnQNpKc-27" value="Да" style="text;html=1;align=center;verticalAlign=middle;resizable=0;points=[];autosize=1;strokeColor=none;fillColor=none;" parent="WIyWlLk6GJQsqaUBKTNV-1" vertex="1">
          <mxGeometry x="300" y="208" width="40" height="30" as="geometry" />
        </mxCell>
        <mxCell id="QkAr9Uhtty9UMBnQNpKc-28" value="Нет" style="text;html=1;align=center;verticalAlign=middle;resizable=0;points=[];autosize=1;strokeColor=none;fillColor=none;" parent="WIyWlLk6GJQsqaUBKTNV-1" vertex="1">
          <mxGeometry x="489" y="208" width="40" height="30" as="geometry" />
        </mxCell>
      </root>
    </mxGraphModel>
  </diagram>
</mxfile>
